<svg width="22" height="18" viewBox="0 0 22 18" fill="none" xmlns="http://www.w3.org/2000/svg">
<path d="M8.24451 16.959L8.24505 16.9595C8.83031 17.5448 9.77689 17.5448 10.3622 16.9595C10.9473 16.3744 10.9474 15.4281 10.3626 14.8428C10.3624 14.8427 10.3623 14.8425 10.3622 14.8424L6.34222 10.8059L19.7266 10.8059C20.5527 10.8059 21.2266 10.1321 21.2266 9.30594C21.2266 8.47979 20.5527 7.80594 19.7266 7.80594L6.34571 7.80594L10.3722 3.77949C10.9574 3.19423 10.9574 2.23765 10.3722 1.65238C9.78689 1.06712 8.84031 1.06712 8.25505 1.65238L1.66504 8.24238C1.07992 8.8275 1.07978 9.77376 1.6646 10.3591C1.66475 10.3592 1.6649 10.3593 1.66504 10.3595L8.24451 16.959Z" fill="#212529" stroke="#212529"/>
</svg>
