<svg width="242" height="242" viewBox="0 0 242 242" fill="none" xmlns="http://www.w3.org/2000/svg">
<path d="M128.976 57.5486C129.344 57.8126 129.744 58.0307 130.165 58.198C130.598 58.3654 131.049 58.5229 131.522 58.6665C132.171 58.847 132.831 58.9806 133.499 59.0662C134.899 59.2253 136.318 59.117 137.679 58.7473C138.35 58.5554 138.967 58.2076 139.478 57.7322C140.039 57.1302 140.504 56.4457 140.856 55.7026C141.22 54.9498 141.512 54.164 141.726 53.3561L142.067 52.2522C142.398 51.0818 142.67 49.9208 142.883 48.7692C143.096 47.6177 143.358 46.4428 143.67 45.2447C143.811 44.674 143.93 44.1119 144.025 43.5549C144.12 42.9979 144.214 42.415 144.286 41.8353C144.312 41.4591 144.326 41.0856 144.319 40.7152C144.306 40.3376 144.256 39.9621 144.17 39.5942C144.054 38.7286 143.715 37.9083 143.186 37.2136C142.611 36.5654 141.929 36.0218 141.168 35.6068C140.385 35.1758 139.55 34.8454 138.684 34.6237C137.806 34.4002 136.904 34.2842 135.998 34.2783C135.115 34.2681 134.234 34.3729 133.377 34.5899C133.054 34.7056 132.746 34.8604 132.461 35.0508C131.598 35.6939 130.913 36.5467 130.471 37.5281C130.025 38.5008 129.68 39.5168 129.442 40.5598C128.957 42.3355 128.57 44.1365 128.284 45.9546C127.998 47.766 127.711 49.5705 127.423 51.3681C127.313 52.0354 127.242 52.7083 127.211 53.3837C127.18 54.0494 127.268 54.7152 127.471 55.3497C127.565 55.8108 127.757 56.2463 128.033 56.6273C128.298 56.9808 128.616 57.2915 128.976 57.5486ZM131.602 52.1461C131.528 51.3227 131.553 50.4934 131.676 49.6756C131.799 48.8299 131.885 47.9939 131.935 47.1674C132.085 46.1991 132.276 45.2331 132.491 44.2898C132.708 43.3717 133.003 42.4739 133.374 41.6063C133.831 40.7146 134.567 39.9965 135.471 39.5617C135.907 39.3579 136.381 39.2463 136.863 39.2338C137.355 39.2137 137.841 39.3488 138.253 39.6199C138.729 39.9798 139.083 40.4769 139.268 41.0444C139.475 41.6371 139.541 42.2704 139.459 42.8935C139.403 43.2875 139.347 43.7128 139.304 44.1581C139.26 44.6034 139.216 44.8503 139.211 44.8716L138.798 47.2272L138.465 48.8771L138.324 49.4565C138.245 49.7964 138.148 50.1969 138.032 50.6492C137.911 51.0225 137.815 51.4034 137.744 51.7892C137.706 52.0377 137.651 52.2831 137.578 52.5236C137.515 52.7183 137.418 52.8999 137.29 53.0596C137.108 53.2655 136.914 53.4591 136.707 53.6394C136.282 53.9622 135.779 54.1665 135.25 54.2313C134.73 54.3034 134.201 54.2697 133.695 54.1321C133.204 54.0008 132.75 53.7567 132.37 53.4194C131.991 53.0819 131.724 52.6382 131.602 52.1461Z" fill="#EEEFF5"/>
<path d="M145.746 52.5508C144.895 54.3713 143.981 56.2794 143.003 58.275L141.928 60.4674C142.429 60.7112 142.913 60.9864 143.379 61.2913C143.855 61.6002 144.349 61.8799 144.86 62.1287C145.092 62.2392 145.329 62.3423 145.569 62.4347C145.814 62.5279 146.066 62.599 146.323 62.6471C146.477 62.2809 146.664 61.8722 146.885 61.4125L147.569 60.0107C147.999 59.1302 148.452 58.2186 148.927 57.2757C149.396 56.3351 149.834 55.4802 150.227 54.7016C150.62 53.9231 150.969 53.3061 151.248 52.816C151.37 52.5613 151.521 52.3211 151.696 52.0997C151.739 52.1192 151.747 52.2458 151.723 52.4808L151.643 53.2456L151.497 54.3425C151.32 55.9209 151.217 57.6071 151.189 59.4012C151.16 61.1953 151.111 63.0379 151.041 64.929C151.459 65.1322 151.931 65.3944 152.45 65.7141C152.969 66.0337 153.44 66.2959 153.862 66.4972C154.112 66.6318 154.376 66.7355 154.651 66.8062C154.759 66.828 154.868 66.8417 154.978 66.8472L155.285 66.2141C155.489 65.7955 155.692 65.3737 155.894 64.9518C156.096 64.5299 156.294 64.1013 156.502 63.6895C156.79 63.0978 157.077 62.5218 157.363 61.9616C157.655 61.401 157.945 60.8144 158.243 60.2045L159.567 57.4947C160.009 56.5925 160.439 55.6929 160.847 54.8019L165.806 44.6481C165.186 44.182 164.521 43.7794 163.821 43.4464C163.065 43.0714 162.278 42.7632 161.468 42.5253C161.188 43.038 160.935 43.5176 160.703 43.9659C160.471 44.4143 160.25 44.8567 160.032 45.2972C159.661 46.0532 159.319 46.802 158.992 47.5409C158.666 48.2799 158.304 49.0719 157.892 49.9109C157.713 50.2804 157.512 50.639 157.29 50.9848C157.052 51.3466 156.906 51.5276 156.824 51.5405C156.785 51.3863 156.771 51.2268 156.783 51.0681C156.773 50.7677 156.766 50.3974 156.756 49.9611C156.746 49.5248 156.742 49.0446 156.743 48.5118C156.744 47.979 156.743 47.4742 156.748 46.9933L156.742 45.7246C156.737 45.3576 156.741 45.1118 156.754 44.982C156.78 44.4527 156.797 44.0092 156.797 43.6576C156.797 43.3059 156.799 42.9889 156.796 42.7018L156.789 41.804C156.789 41.4883 156.807 41.1075 156.844 40.6614C156.864 40.6182 156.765 40.5278 156.573 40.371C156.381 40.2142 156.134 40.0577 155.843 39.9011C155.551 39.7444 155.281 39.5619 154.991 39.4085C154.701 39.2552 154.493 39.1482 154.354 39.0956C154.105 38.9724 153.849 38.8619 153.599 38.7667C153.363 38.6736 153.122 38.595 152.876 38.5312C152.113 39.822 151.365 41.1675 150.63 42.5677C149.896 43.9679 149.173 45.391 148.463 46.837C147.509 48.8182 146.603 50.7228 145.746 52.5508Z" fill="#EEEFF5"/>
<path d="M164.354 58.5668C163.082 60.0961 161.814 61.6361 160.551 63.1867C159.288 64.7374 157.997 66.2884 156.677 67.8396C158.352 69.5133 160.122 71.0889 161.979 72.5587C163.91 74.0951 165.775 75.6431 167.575 77.2028C168.202 76.7651 168.775 76.2559 169.284 75.6857C169.831 75.0825 170.32 74.4902 170.779 73.8985L170.824 73.8448C169.581 72.8545 168.418 71.8422 167.336 70.8079C166.254 69.7736 165.119 68.7506 163.933 67.7389L163.911 67.7021C164.24 67.2416 164.664 66.6837 165.177 66.0236C165.641 65.4181 166.169 64.8637 166.751 64.37C166.983 64.4058 167.2 64.5074 167.376 64.6629C167.641 64.8581 167.927 65.09 168.237 65.3533C168.546 65.6166 168.87 65.8807 169.221 66.1689C169.531 66.4248 169.87 66.6436 170.231 66.8207C170.772 66.1482 171.32 65.5234 171.873 64.9463C172.425 64.3698 172.918 63.7383 173.342 63.0617L173.368 63.0459C172.832 62.5603 172.29 62.0786 171.738 61.6116C171.185 61.1446 170.66 60.6617 170.157 60.1703L170.135 60.1335C170.435 59.5227 170.847 58.973 171.349 58.5127C171.861 58.0398 172.336 57.5278 172.769 56.9815L172.821 56.9778L172.898 57.0454C173.532 57.4909 174.142 57.9642 174.728 58.4654C175.314 58.9665 175.897 59.4708 176.477 59.9782C177.059 60.4878 177.649 60.9747 178.246 61.4391C178.86 61.9037 179.514 62.3136 180.2 62.6639L180.227 62.6481C180.764 62.0292 181.326 61.4156 181.912 60.8072C182.498 60.2131 183.019 59.5582 183.466 58.8538C183.327 58.6627 183.164 58.4912 182.979 58.3438C182.638 58.027 182.177 57.6144 181.588 57.1152C180.998 56.616 180.321 56.0604 179.537 55.415C178.753 54.7697 177.948 54.1275 177.116 53.4473C176.284 52.767 175.449 52.0974 174.618 51.4345C173.788 50.7715 173.004 50.1661 172.282 49.6103C170.888 51.067 169.538 52.5433 168.23 54.0391C166.923 55.535 165.631 57.0442 164.354 58.5668Z" fill="#EEEFF5"/>
<path d="M190.132 84.3006C190.297 84.0451 190.504 83.7378 190.743 83.3793C190.983 83.0209 191.262 82.6214 191.565 82.1801L192.436 80.9338L193.169 79.8819C193.377 79.5779 193.519 79.3815 193.599 79.2801C193.928 78.8595 194.192 78.5045 194.393 78.2185L194.945 77.4408L195.45 76.6908C195.625 76.4293 195.862 76.1268 196.147 75.7772C196.187 75.7535 196.17 75.6242 196.094 75.3894C196.018 75.1545 195.91 74.8803 195.781 74.5779C195.651 74.2755 195.515 73.9771 195.366 73.6867C195.217 73.3962 195.108 73.1898 195.043 73.0656C194.901 72.8251 194.761 72.588 194.624 72.3575C194.484 72.1457 194.33 71.9427 194.165 71.7498C192.798 72.3724 191.411 73.0435 190.002 73.7631C188.594 74.4827 187.187 75.2388 185.783 76.0312C183.863 77.1003 182.028 78.1373 180.29 79.148C178.552 80.1588 176.707 81.2016 174.761 82.2812L172.617 83.4744C172.885 83.962 173.124 84.4651 173.332 84.9812C173.546 85.5079 173.791 86.0211 174.066 86.5181C174.197 86.7386 174.327 86.959 174.462 87.1862C174.608 87.4037 174.776 87.6069 174.961 87.7928C175.295 87.5947 175.69 87.361 176.122 87.1054L177.482 86.3498C178.338 85.8729 179.231 85.3835 180.16 84.8816C181.083 84.3802 181.931 83.9277 182.698 83.528C183.464 83.1283 184.106 82.8073 184.613 82.5654C184.86 82.427 185.121 82.3149 185.391 82.2311C185.415 82.2712 185.349 82.3821 185.193 82.5604L184.692 83.1413L183.943 83.9593C182.895 85.1567 181.845 86.482 180.793 87.9352C179.74 89.3884 178.645 90.8741 177.508 92.3926C177.767 92.8637 178.003 93.3477 178.213 93.8428C178.458 94.4015 178.694 94.8842 178.923 95.2943C179.05 95.5465 179.208 95.782 179.392 95.9954C179.469 96.0757 179.551 96.1507 179.638 96.2197L180.24 95.8632C180.645 95.6235 181.047 95.3858 181.46 95.1681C181.874 94.9504 182.267 94.6907 182.668 94.453C183.233 94.1182 183.805 93.8248 184.377 93.5227C184.948 93.2206 185.506 92.9124 186.102 92.5824L188.74 91.1154C189.617 90.6277 190.479 90.1306 191.328 89.6328L201.185 84.1488C200.946 83.4103 200.632 82.6984 200.248 82.0241C199.84 81.2836 199.368 80.5805 198.837 79.9229C198.315 80.1866 197.831 80.4372 197.385 80.6694L196.071 81.38C195.339 81.7922 194.63 82.2122 193.943 82.6398C193.247 83.0518 192.497 83.4955 191.691 83.9729C191.334 84.1736 190.964 84.353 190.586 84.5101C190.195 84.6739 189.96 84.736 189.888 84.6977C189.947 84.553 190.03 84.4189 190.132 84.3006Z" fill="#EEEFF5"/>
<path d="M202.819 93.5791C201.862 93.088 200.796 92.847 199.72 92.8786C198.651 92.9063 197.587 93.0432 196.546 93.2872C194.735 93.6353 192.945 94.081 191.182 94.6224C189.423 95.1618 187.67 95.6943 185.924 96.2199C185.273 96.4104 184.634 96.6382 184.01 96.9021C183.398 97.1677 182.837 97.5391 182.355 97.9992C181.981 98.2881 181.673 98.6532 181.452 99.0702C181.252 99.4623 181.11 99.882 181.033 100.315C180.954 100.763 180.931 101.22 180.965 101.673C180.999 102.135 181.065 102.606 181.134 103.097C181.257 103.76 181.426 104.414 181.641 105.053C181.856 105.689 182.135 106.302 182.476 106.882C182.831 107.524 183.26 108.122 183.753 108.665C184.218 109.185 184.8 109.587 185.451 109.839C186.237 110.077 187.056 110.193 187.878 110.183C188.715 110.182 189.549 110.099 190.37 109.935L191.516 109.748C192.717 109.534 193.881 109.268 195.008 108.953C196.135 108.638 197.307 108.357 198.526 108.111C199.094 107.986 199.658 107.847 200.211 107.69C200.765 107.534 201.314 107.362 201.864 107.163C202.229 107.015 202.553 106.868 202.886 106.698C203.221 106.521 203.537 106.311 203.83 106.071C204.559 105.592 205.151 104.931 205.546 104.153C205.88 103.353 206.071 102.501 206.111 101.635C206.157 100.743 206.091 99.8489 205.913 98.9736C205.731 98.0864 205.441 97.2249 205.05 96.4084C204.673 95.6099 204.195 94.8636 203.627 94.1879C203.381 93.9551 203.11 93.7509 202.819 93.5791ZM201.239 100.794C201.125 101.379 200.833 101.916 200.404 102.33C199.956 102.775 199.409 103.11 198.808 103.306C198.428 103.427 198.022 103.565 197.589 103.712C197.157 103.86 196.929 103.941 196.909 103.944L194.613 104.608L192.984 105.031L192.399 105.166L191.198 105.426C190.807 105.478 190.42 105.557 190.04 105.66C189.8 105.736 189.555 105.794 189.306 105.833C189.104 105.864 188.898 105.856 188.7 105.809C188.436 105.738 188.177 105.649 187.926 105.54C187.455 105.303 187.056 104.945 186.769 104.502C186.474 104.064 186.271 103.57 186.172 103.051C186.078 102.553 186.1 102.039 186.238 101.551C186.371 101.061 186.65 100.622 187.038 100.292C187.745 99.8623 188.501 99.5204 189.291 99.2741C190.107 99.0119 190.896 98.7256 191.659 98.4045C192.599 98.1153 193.549 97.8627 194.509 97.6465C195.43 97.4397 196.367 97.312 197.31 97.2645C198.313 97.2837 199.281 97.6315 200.065 98.2543C200.439 98.5553 200.747 98.9312 200.967 99.3579C201.209 99.7948 201.305 100.298 201.239 100.794Z" fill="#EEEFF5"/>
<path d="M198.526 113.163C195.393 113.096 192.282 113.066 189.195 113.071C188.203 113.092 187.241 113.419 186.441 114.007C185.682 114.577 185.059 115.308 184.617 116.147C184.146 117.041 183.826 118.006 183.67 119.004C183.495 120.011 183.454 121.036 183.546 122.054C183.633 123.574 184.298 125.002 185.404 126.047C186.494 127.028 187.868 127.636 189.329 127.783C192.344 128.103 195.378 128.286 198.432 128.33C201.486 128.375 204.509 128.324 207.502 128.179C207.682 127.843 207.789 127.472 207.816 127.091C207.865 126.626 207.878 126.157 207.853 125.689C207.829 125.198 207.786 124.714 207.728 124.234C207.67 123.754 207.629 123.363 207.607 123.06C204.892 122.993 202.085 122.955 199.186 122.949C196.287 122.942 193.434 122.882 190.626 122.77C190.125 122.677 189.676 122.404 189.363 122.003C189.068 121.631 188.898 121.177 188.874 120.704C188.851 120.23 188.973 119.759 189.224 119.356C189.499 118.907 189.94 118.585 190.45 118.458C196.18 117.984 201.933 117.87 207.676 118.116L207.703 118.1C207.8 117.721 207.864 117.335 207.895 116.945C207.93 116.522 207.947 116.093 207.948 115.645C207.95 115.198 207.931 114.754 207.904 114.319C207.877 113.883 207.869 113.496 207.868 113.144L207.854 113.121L207.811 113.147C204.759 113.222 201.664 113.227 198.526 113.163Z" fill="#EEEFF5"/>
<path d="M198.467 133.564C196.338 133.021 194.3 132.501 192.353 132.006C190.406 131.511 188.355 130.99 186.2 130.443L183.812 129.822C183.67 130.361 183.494 130.89 183.286 131.406C183.075 131.934 182.895 132.474 182.748 133.024C182.682 133.271 182.638 133.54 182.585 133.779C182.539 134.037 182.518 134.299 182.52 134.562C182.912 134.636 183.35 134.742 183.836 134.87C184.323 134.997 184.824 135.133 185.345 135.266C186.293 135.517 187.277 135.782 188.289 136.063C189.3 136.344 190.226 136.603 191.057 136.847C191.888 137.09 192.574 137.302 193.105 137.474C193.378 137.545 193.643 137.646 193.893 137.775C193.882 137.817 193.759 137.854 193.524 137.876L192.76 137.945L191.655 138.017C190.072 138.157 188.4 138.385 186.638 138.701C184.875 139.016 183.056 139.325 181.18 139.627C181.059 140.077 180.893 140.591 180.68 141.163C180.468 141.735 180.302 142.249 180.182 142.703C180.099 142.972 180.05 143.249 180.035 143.53C180.033 143.642 180.04 143.754 180.057 143.865L180.735 144.041C181.186 144.161 181.642 144.275 182.093 144.382C182.545 144.489 183.003 144.606 183.456 144.721C184.088 144.888 184.708 145.058 185.316 145.23C185.924 145.402 186.555 145.576 187.21 145.751C188.183 146.005 189.155 146.261 190.127 146.518C191.1 146.772 192.062 147.015 193.019 147.242L203.962 150.119C204.298 149.418 204.564 148.687 204.756 147.934C204.978 147.118 205.127 146.284 205.202 145.442C204.641 145.269 204.12 145.113 203.637 144.975C203.153 144.837 202.677 144.704 202.201 144.58C201.385 144.362 200.584 144.169 199.797 144C199.008 143.827 198.157 143.618 197.255 143.385C196.86 143.279 196.47 143.151 196.089 143.002C195.693 142.853 195.479 142.736 195.438 142.666C195.581 142.598 195.735 142.553 195.892 142.532L196.973 142.289C197.396 142.196 197.867 142.098 198.393 141.994L199.885 141.698L201.132 141.446C201.489 141.37 201.73 141.327 201.856 141.311C202.384 141.233 202.82 141.16 203.165 141.095L204.105 140.904L204.986 140.721C205.295 140.655 205.673 140.598 206.122 140.549C206.165 140.56 206.253 140.471 206.353 140.228C206.452 139.984 206.572 139.736 206.688 139.429C206.804 139.121 206.915 138.812 207.01 138.499L207.208 137.826C207.278 137.555 207.345 137.294 207.385 137.018C207.429 136.769 207.459 136.517 207.477 136.265C206.059 135.768 204.594 135.298 203.08 134.853C201.566 134.408 200.029 133.978 198.467 133.564Z" fill="#EEEFF5"/>
<path d="M180.754 146.294C180.284 146.058 179.93 145.879 179.704 145.765C179.478 145.65 179.331 145.57 179.268 145.54L179.142 145.48C179.124 145.487 179.108 145.498 179.094 145.512C179.081 145.526 179.07 145.543 179.064 145.562L178.236 146.995C177.962 146.814 177.672 146.607 177.368 146.376C177.065 146.146 176.776 145.91 176.508 145.686C176.239 145.461 176.015 145.265 175.826 145.115C175.638 144.965 175.517 144.897 175.454 144.921C175.146 145.522 174.909 146.015 174.747 146.39C174.654 146.637 174.522 146.868 174.356 147.073C174.549 147.216 174.738 147.352 174.918 147.489C175.099 147.625 175.284 147.764 175.477 147.906L176.629 148.753C176.725 148.823 176.834 148.908 176.961 149.008C177.057 149.087 177.161 149.155 177.272 149.212C177.286 149.224 177.296 149.241 177.299 149.259C177.3 149.268 177.302 149.276 177.307 149.284C177.311 149.292 177.318 149.298 177.325 149.303L177.297 149.369L180.89 151.202L180.901 151.168C181.295 150.448 181.673 149.793 182.037 149.201C182.392 148.647 182.625 148.025 182.722 147.375L182.737 147.339L182.723 147.315C181.882 146.866 181.225 146.526 180.754 146.294Z" fill="#EEEFF5"/>
<path d="M182.222 164.961C180.709 163.674 179.184 162.392 177.645 161.116C176.107 159.841 174.572 158.535 173.04 157.199C171.344 158.856 169.745 160.609 168.249 162.448C166.69 164.364 165.117 166.212 163.53 167.994C163.954 168.626 164.45 169.207 165.007 169.726C165.604 170.276 166.2 170.775 166.798 171.224L166.851 171.269C167.862 170.039 168.891 168.887 169.938 167.813C170.986 166.738 172.017 165.62 173.031 164.457L173.068 164.436C173.523 164.77 174.072 165.194 174.735 165.726C175.336 166.196 175.885 166.728 176.372 167.315C176.333 167.548 176.23 167.765 176.074 167.942C175.877 168.204 175.644 168.49 175.376 168.807C175.107 169.124 174.843 169.434 174.549 169.784C174.289 170.092 174.065 170.429 173.882 170.788C174.549 171.334 175.167 171.887 175.736 172.446C176.306 173.003 176.93 173.501 177.601 173.931L177.618 173.962C178.112 173.432 178.597 172.893 179.075 172.346C179.552 171.799 180.039 171.276 180.536 170.777L180.585 170.775C181.191 171.082 181.734 171.499 182.186 172.006C182.655 172.521 183.161 173 183.7 173.442L183.722 173.479L183.653 173.56C183.195 174.186 182.713 174.79 182.208 175.372C181.703 175.953 181.191 176.532 180.673 177.106C180.155 177.681 179.659 178.266 179.186 178.861C178.711 179.459 178.289 180.095 177.923 180.764L177.94 180.794C178.557 181.332 179.153 181.881 179.759 182.492C180.346 183.08 180.994 183.603 181.691 184.054C181.884 183.918 182.057 183.756 182.207 183.573C182.531 183.237 182.947 182.777 183.455 182.194C183.961 181.614 184.522 180.944 185.18 180.162L187.181 177.764C187.87 176.936 188.553 176.113 189.228 175.284C189.903 174.456 190.52 173.689 191.085 172.971C189.649 171.563 188.188 170.198 186.704 168.876C185.219 167.554 183.725 166.249 182.222 164.961Z" fill="#EEEFF5"/>
<path d="M168.698 178.715C165.884 175.899 162.926 173.229 159.837 170.717C159.404 170.867 158.99 171.067 158.603 171.312C158.148 171.581 157.718 171.877 157.305 172.171C156.94 172.426 156.59 172.703 156.258 172.998C155.963 173.263 155.734 173.457 155.582 173.566C156.302 175.545 157.022 177.49 157.743 179.4C158.464 181.309 159.193 183.204 159.929 185.084C160.667 186.97 161.419 188.852 162.197 190.738C162.974 192.623 163.805 194.522 164.676 196.452C165.053 196.272 165.417 196.064 165.763 195.83C166.122 195.59 166.478 195.344 166.832 195.094C167.185 194.844 167.534 194.601 167.889 194.369C168.232 194.137 168.597 193.942 168.981 193.786C168.989 193.782 168.997 193.776 169.003 193.768C169.008 193.76 169.012 193.752 169.014 193.742C169.015 193.733 169.015 193.723 169.012 193.714C169.009 193.705 169.003 193.697 168.997 193.69C168.64 192.738 168.212 191.755 167.702 190.74C167.191 189.725 166.657 188.602 166.06 187.395C165.463 186.188 164.82 184.858 164.148 183.402C163.476 181.946 162.774 180.318 162.023 178.53C163.442 179.744 164.788 181.041 166.053 182.415C167.263 183.731 168.332 184.964 169.26 186.114C170.188 187.261 170.979 188.254 171.592 189.1C172.036 189.72 172.524 190.307 173.053 190.856C173.363 190.711 173.662 190.542 173.946 190.35C174.357 190.083 174.781 189.792 175.229 189.464C175.634 189.163 176.021 188.838 176.387 188.489C176.652 188.286 176.842 188.001 176.928 187.678L176.91 187.648C174.294 184.547 171.557 181.57 168.698 178.715Z" fill="#EEEFF5"/>
<path d="M138.336 182.057C138.446 182.812 138.643 183.553 138.924 184.262C139.205 184.998 139.521 185.713 139.869 186.409L139.903 186.466C141.353 185.806 142.782 185.223 144.19 184.717C145.599 184.211 147.017 183.657 148.444 183.056L148.487 183.075C148.751 183.573 149.06 184.202 149.42 184.963C149.75 185.651 150.008 186.37 150.19 187.111C150.05 187.299 149.86 187.444 149.642 187.529C149.361 187.696 149.014 187.834 148.638 187.993C148.262 188.152 147.87 188.322 147.465 188.507C147.096 188.669 146.747 188.876 146.428 189.121C146.785 189.908 147.096 190.676 147.361 191.424C147.627 192.176 147.97 192.898 148.384 193.579L148.402 193.609C149.079 193.348 149.755 193.078 150.424 192.796C151.092 192.513 151.759 192.258 152.423 192.027L152.469 192.045C152.877 192.588 153.18 193.202 153.365 193.856C153.557 194.525 153.8 195.179 154.093 195.811L154.076 195.857L153.985 195.911C153.299 196.278 152.601 196.61 151.891 196.907C151.168 197.213 150.467 197.502 149.749 197.792C149.03 198.082 148.332 198.391 147.644 198.717C146.958 199.049 146.301 199.438 145.68 199.88L145.684 199.887C146 200.638 146.295 201.414 146.569 202.214C146.837 203.002 147.187 203.759 147.614 204.474C147.846 204.43 148.073 204.36 148.289 204.263C148.727 204.103 149.305 203.873 150.018 203.573C150.73 203.273 151.543 202.914 152.461 202.502L155.317 201.221C156.3 200.78 157.275 200.337 158.24 199.892C159.206 199.447 160.101 199.025 160.925 198.627C160.254 196.73 159.544 194.862 158.795 193.022C158.047 191.183 157.275 189.353 156.48 187.532C155.689 185.712 154.884 183.891 154.064 182.069C153.248 180.248 152.441 178.397 151.655 176.527C149.403 177.272 147.195 178.145 145.043 179.142C142.773 180.182 140.537 181.154 138.336 182.057Z" fill="#EEEFF5"/>
<path d="M135.905 182.613C135.598 182.671 135.286 182.705 134.974 182.712C134.474 182.753 133.909 182.817 133.28 182.904C132.655 182.994 132.035 183.09 131.394 183.222C130.867 183.308 130.358 183.477 129.884 183.723C129.961 184.16 130.065 184.748 130.203 185.483C130.34 186.219 130.471 186.998 130.609 187.818C130.747 188.639 130.857 189.435 130.95 190.21C131.035 190.867 131.079 191.527 131.082 192.189L130.999 192.094C130.387 191.495 129.815 190.857 129.286 190.185C128.701 189.458 128.15 188.71 127.637 187.95C127.123 187.189 126.645 186.457 126.209 185.759C125.773 185.061 125.401 184.456 125.106 183.949L125.076 183.967C124.047 184.019 123.023 184.137 122.009 184.321C121.017 184.502 120.114 184.641 119.301 184.738L119.331 184.72C119.796 185.634 120.338 186.507 120.952 187.329C121.573 188.164 122.213 188.975 122.871 189.761C123.529 190.547 124.201 191.331 124.887 192.113C125.567 192.887 126.206 193.677 126.796 194.474L126.811 194.501L126.785 194.517L126.645 194.532C125.652 194.684 124.728 195.129 123.99 195.81C123.325 196.458 122.81 197.243 122.482 198.11C121.921 199.317 121.721 200.659 121.906 201.975C122.077 203.211 122.553 204.385 123.291 205.391C124.039 206.398 125.021 207.21 126.151 207.757C127.339 208.344 128.664 208.596 129.986 208.487C131.627 208.475 133.263 208.288 134.866 207.929C136.401 207.577 137.808 207.229 139.088 206.887C139.006 206.588 138.894 206.018 138.759 205.178C138.623 204.338 138.471 203.319 138.305 202.122C138.139 200.926 137.952 199.625 137.744 198.205C137.536 196.786 137.342 195.344 137.153 193.895C136.964 192.446 136.794 191.045 136.631 189.693L136.196 186.089C136.072 185.048 135.983 184.203 135.916 183.548C135.849 182.893 135.858 182.618 135.905 182.613ZM132.92 199.324C132.976 199.693 133.027 200.077 133.076 200.472C133.125 200.868 133.176 201.252 133.234 201.633C133.293 202.013 133.352 202.357 133.394 202.666C132.666 203.072 131.874 203.353 131.053 203.497C130.705 203.57 130.346 203.571 129.998 203.501C129.65 203.431 129.32 203.291 129.028 203.09C128.663 202.867 128.377 202.538 128.207 202.146C128.017 201.751 127.915 201.319 127.908 200.879C127.901 200.45 128.002 200.025 128.203 199.645C128.298 199.454 128.43 199.284 128.592 199.146C128.754 199.007 128.942 198.903 129.145 198.839C129.722 198.675 130.314 198.568 130.912 198.519C131.541 198.467 132.124 198.429 132.658 198.415L132.685 198.399C132.787 198.701 132.866 199.01 132.92 199.324Z" fill="#EEEFF5"/>
<path d="M117.347 184.316L117.277 184.303C117.144 184.259 117.007 184.225 116.869 184.202L116.453 184.133C115.921 184.044 115.364 183.971 114.782 183.913C114.199 183.852 113.666 183.784 113.183 183.7L112.733 183.628C112.594 183.605 112.457 183.57 112.323 183.524C111.293 185.442 110.165 187.312 108.94 189.135C107.715 190.958 106.464 192.779 105.187 194.596C103.914 196.414 102.675 198.241 101.469 200.077C100.264 201.918 99.1632 203.825 98.1732 205.79L98.167 205.826C98.3419 205.88 98.5196 205.925 98.6993 205.961C98.9276 206.011 99.1819 206.059 99.4569 206.104C100.057 206.202 100.713 206.292 101.424 206.374C101.991 206.448 102.564 206.475 103.136 206.456C103.421 206.03 103.734 205.489 104.08 204.838C104.426 204.186 104.782 203.52 105.159 202.845C105.537 202.17 105.875 201.519 106.227 200.909C106.517 200.39 106.846 199.894 107.21 199.425C107.347 199.899 107.492 200.481 107.65 201.167C107.808 201.854 107.948 202.579 108.074 203.334C108.201 204.089 108.308 204.829 108.414 205.556C108.519 206.283 108.584 206.912 108.622 207.435C108.857 207.591 109.114 207.711 109.385 207.791C109.654 207.871 109.928 207.933 110.205 207.978C110.713 208.063 111.227 208.113 111.743 208.127C112.236 208.137 112.728 208.182 113.215 208.262C113.141 207.22 112.992 206.185 112.769 205.165C112.544 204.113 112.3 203.055 112.037 201.99C111.773 200.925 111.532 199.865 111.311 198.811C111.089 197.76 110.933 196.697 110.845 195.627L110.857 195.556L114.293 189.85C115.416 187.931 116.434 186.086 117.347 184.316Z" fill="#EEEFF5"/>
<path d="M93.8276 184.812C94.6837 183.094 95.4515 181.334 96.1281 179.539L96.0846 179.564C94.789 178.867 93.4529 178.154 92.0762 177.427C90.6946 176.688 89.3116 175.978 87.9331 175.283C86.5975 175.839 85.2908 176.462 84.0181 177.15C82.7332 177.849 81.5407 178.707 80.4685 179.702C80.4685 179.702 80.4418 179.718 80.4351 179.722C80.4284 179.726 80.4183 179.732 80.4016 179.742C79.7003 180.592 79.0682 181.498 78.5114 182.449C77.9551 183.41 77.3862 184.364 76.8234 185.307C76.6659 185.643 76.517 185.98 76.3735 186.317C76.2301 186.67 76.1227 187.035 76.053 187.409C75.7981 188.31 75.6122 189.228 75.4969 190.156C75.3874 191.081 75.3689 192.013 75.4418 192.941C75.4974 193.772 75.6956 194.587 76.0277 195.35C76.3352 196.107 76.8035 196.789 77.4002 197.348C78.0034 197.649 78.6151 197.98 79.2353 198.341C79.8555 198.701 80.4783 199.059 81.1039 199.413C81.7374 199.766 82.3798 200.088 83.0311 200.379C83.6658 200.659 84.3224 200.887 84.9942 201.061C85.0205 201.05 85.0452 201.035 85.0679 201.018C85.0904 200.998 85.1166 200.983 85.1448 200.972C86.0771 199.163 87.0502 197.357 88.0642 195.554C89.0782 193.751 90.0743 191.958 91.0526 190.176C92.0235 188.371 92.9485 186.583 93.8276 184.812ZM86.2343 188.441C85.8418 189.121 85.4767 189.777 85.1388 190.407C84.8009 191.037 84.4974 191.644 84.2282 192.227L84.1621 192.352L84.1463 192.325L84.0812 192.292C83.6544 192.165 83.245 191.986 82.8623 191.759C82.4671 191.542 82.0987 191.309 81.7604 191.058C81.49 190.772 81.2923 190.425 81.1839 190.046C81.086 189.679 81.044 189.3 81.0594 188.92C81.0721 188.528 81.1294 188.138 81.2304 187.759C81.3322 187.374 81.4373 187.009 81.5442 186.671C81.7523 185.893 82.1355 185.172 82.6646 184.564C83.1525 184.019 83.7313 183.564 84.3752 183.217C84.6053 183.094 84.8441 182.987 85.0899 182.898C85.3401 182.805 85.6035 182.753 85.8701 182.743C85.9877 182.757 86.1063 182.761 86.2246 182.754C86.3361 182.747 86.4458 182.784 86.5299 182.857C86.9208 183.014 87.3222 183.196 87.7448 183.383C87.9225 183.455 88.0838 183.561 88.2191 183.697C88.3544 183.832 88.4609 183.993 88.5321 184.171C88.1972 184.893 87.8356 185.607 87.4475 186.315C87.0593 187.023 86.6549 187.732 86.2343 188.441Z" fill="#EEEFF5"/>
<path d="M77.4468 178.437C78.6983 177.468 79.7976 176.605 80.7447 175.849C81.6955 175.096 82.4621 174.476 83.0452 173.995C83.6283 173.515 83.9928 173.222 84.1381 173.131C84.1364 173.118 84.1321 173.105 84.1253 173.094C84.1185 173.082 84.1094 173.073 84.0985 173.065C82.8851 172.033 82.0169 171.251 81.4939 170.718C81.1793 170.371 80.8278 170.059 80.4455 169.787C80.4312 169.775 80.4127 169.768 80.3937 169.768C80.3845 169.769 80.3753 169.767 80.3669 169.764C80.3585 169.76 80.351 169.754 80.3452 169.747C79.89 169.921 79.4604 170.156 79.0681 170.445C78.6457 170.749 78.2103 171.075 77.7619 171.421C77.317 171.761 76.8903 172.086 76.4763 172.394C76.1069 172.669 75.71 172.904 75.2919 173.096C75.1004 172.925 74.9413 172.793 74.8199 172.703C74.6985 172.612 74.5911 172.523 74.4984 172.442L74.1697 172.154C73.9991 171.993 73.8397 171.821 73.6925 171.638C73.8241 171.21 73.9893 170.792 74.1867 170.389C74.407 169.93 74.6488 169.453 74.9073 168.966C75.1658 168.479 75.423 167.997 75.6654 167.529C75.8866 167.123 76.0841 166.705 76.2569 166.277L76.2411 166.25C75.7655 165.604 75.2345 165.001 74.654 164.447C74.0992 163.905 73.4827 163.429 72.817 163.031L72.7869 163.049L66.6102 173.986L65.8274 175.442C65.4989 176.058 65.1341 176.734 64.7328 177.47L63.4658 179.772L62.2211 182.02C61.8332 182.724 61.4924 183.354 61.1961 183.922C60.8997 184.49 60.6763 184.906 60.5265 185.18C61.15 185.638 61.6452 186.021 62.012 186.33C62.3785 186.637 62.6754 186.894 62.9121 187.088C63.1488 187.281 63.323 187.453 63.4621 187.574C63.5951 187.69 63.7348 187.799 63.8806 187.899C65.5422 186.864 67.1759 185.795 68.7816 184.691C70.3873 183.587 71.9215 182.507 73.3842 181.451C74.8459 180.415 76.2001 179.41 77.4468 178.437ZM68.2563 180.27C67.9149 180.589 67.5237 180.852 67.0981 181.046C66.8549 181.131 66.8145 180.979 66.9844 180.594C67.3294 179.9 67.7206 179.23 68.1555 178.588C68.7662 177.625 69.6489 176.318 70.8036 174.666C71.1363 174.96 71.4703 175.25 71.811 175.535C72.1517 175.821 72.4645 176.105 72.7606 176.376C71.8458 177.161 70.9995 177.897 70.2218 178.583C69.4441 179.269 68.7869 179.828 68.2504 180.26L68.2563 180.27Z" fill="#EEEFF5"/>
<path d="M55.5202 170.267C56.1142 169.347 56.7214 168.442 57.3446 167.54C57.9562 166.654 58.623 165.808 59.341 165.005L59.4013 164.97C61.564 164.501 63.7338 164.027 65.9108 163.547C68.0878 163.067 70.1304 162.551 72.0387 161.999L72.0031 161.938C71.9414 161.811 71.8693 161.69 71.7875 161.574C71.7163 161.454 71.6284 161.344 71.5505 161.227C71.2509 160.782 70.9259 160.325 70.5691 159.86C70.2122 159.394 69.9012 158.961 69.6252 158.556C69.5422 158.415 69.465 158.285 69.3685 158.175C69.2874 158.061 69.2159 157.941 69.1549 157.815C67.056 158.381 64.9215 158.846 62.7515 159.21C60.5814 159.575 58.3993 159.917 56.2052 160.235C54.0088 160.555 51.8288 160.911 49.6653 161.301C47.5013 161.69 45.3613 162.204 43.2563 162.84L43.2262 162.858C43.3119 163.025 43.4076 163.187 43.5129 163.342C43.6335 163.546 43.7641 163.767 43.9318 163.997C44.2704 164.5 44.6535 165.04 45.0803 165.608C45.4118 166.073 45.7829 166.508 46.1895 166.909C46.6922 166.822 47.3015 166.681 48.0173 166.486L50.1915 165.884C50.9321 165.685 51.6472 165.496 52.3395 165.33C52.9146 165.18 53.5003 165.075 54.0913 165.014C53.8405 165.438 53.5186 165.94 53.1227 166.531C52.7269 167.121 52.3017 167.716 51.8357 168.325C51.3698 168.935 50.9113 169.527 50.4516 170.101C49.9918 170.676 49.5867 171.159 49.2216 171.542C49.2679 171.82 49.3555 172.089 49.4816 172.34C49.6094 172.59 49.7527 172.832 49.9107 173.065C50.1973 173.494 50.5142 173.902 50.8591 174.285C51.1871 174.652 51.4909 175.041 51.7686 175.447C52.473 174.677 53.1224 173.859 53.7118 172.998C54.3309 172.105 54.9337 171.195 55.5202 170.267Z" fill="#EEEFF5"/>
<path d="M62.447 155.155C63.307 154.73 63.9707 154.396 64.438 154.152C64.9035 153.908 65.2533 153.728 65.4773 153.618C65.7014 153.508 65.8545 153.431 65.9147 153.395L66.0352 153.324C66.0402 153.306 66.0411 153.287 66.038 153.268C66.0349 153.25 66.0278 153.232 66.0172 153.217L65.3447 151.707C65.6501 151.59 65.9888 151.475 66.3574 151.365C66.7261 151.255 67.0786 151.163 67.4212 151.078C67.7637 150.992 68.0534 150.924 68.2824 150.861C68.5115 150.798 68.6566 150.73 68.6596 150.674C68.3523 150.071 68.0955 149.591 67.8859 149.237C67.7392 149.021 67.6282 148.782 67.5573 148.53L66.8907 148.739L66.2222 148.946L64.8569 149.38C64.7446 149.419 64.6131 149.456 64.4728 149.494C64.3527 149.525 64.2365 149.569 64.1267 149.627C64.1139 149.64 64.0977 149.65 64.0798 149.655C64.0708 149.652 64.0614 149.652 64.0521 149.653C64.0429 149.655 64.0341 149.658 64.0265 149.664L63.9909 149.604L60.3887 151.434L60.4065 151.464C60.7616 152.201 61.0604 152.881 61.3293 153.534C61.5699 154.143 61.9365 154.695 62.4051 155.153L62.4229 155.183L62.447 155.155Z" fill="#EEEFF5"/>
<path d="M41.9239 145.73C43.3751 145.403 44.729 145.105 45.9857 144.836C47.234 144.548 48.4289 144.292 49.5902 144.055C50.7516 143.819 51.8431 143.556 52.9659 143.315C54.0886 143.075 55.2454 142.823 56.4463 142.554L60.2959 141.691L60.3242 141.647C60.3345 141.36 60.3072 141.073 60.2432 140.793C60.1637 140.323 60.0573 139.785 59.924 139.178C59.7907 138.571 59.6415 137.953 59.4764 137.323C59.3105 136.699 59.1508 136.162 59.0064 135.72L54.9015 136.571C53.4691 136.869 52.0232 137.124 50.5639 137.335L50.5461 137.305C50.2818 136.645 50.0339 135.944 49.8049 135.191C49.5759 134.438 49.3287 133.722 49.0579 133.044C49.0243 132.987 49.0025 132.95 48.9645 132.955C48.487 133.114 47.9994 133.242 47.5049 133.336C46.9329 133.454 46.3603 133.563 45.7977 133.666C45.2351 133.769 44.7252 133.877 44.2698 133.993C43.9551 134.051 43.652 134.16 43.3725 134.317C43.4509 134.563 43.5435 134.865 43.6491 135.226C43.7547 135.588 43.8469 135.957 43.9336 136.348C44.0204 136.739 44.1018 137.128 44.1804 137.528C44.2531 137.891 44.3045 138.259 44.3345 138.628C44.3373 138.641 44.3371 138.654 44.3337 138.667C44.3304 138.68 44.3241 138.692 44.3153 138.702C43.9409 139.02 43.5027 139.253 43.0303 139.386C42.4554 139.554 41.8484 139.577 41.2629 139.454C41.0342 138.762 40.808 138.017 40.5845 137.217C40.3578 136.422 40.1358 135.619 39.9225 134.816C39.7092 134.013 39.4944 133.238 39.278 132.491C39.0617 131.744 38.877 131.051 38.6816 130.454C38.378 130.498 38.005 130.57 37.5604 130.666L36.1572 130.983C35.6666 131.093 35.1953 131.205 34.7379 131.318C34.2806 131.431 33.9107 131.524 33.6104 131.589C33.6005 132.383 33.6465 133.178 33.7479 133.966C33.8405 134.885 34.0135 135.834 34.2288 136.839C34.4441 137.843 34.6813 138.862 34.9438 139.893C35.2062 140.924 35.4798 141.89 35.7597 142.798C36.0397 143.706 36.2849 144.517 36.5181 145.231C36.7514 145.946 36.9411 146.488 37.0979 146.859L37.1247 146.843L41.9239 145.73Z" fill="#EEEFF5"/>
<path d="M37.0904 126.858C38.129 127.108 39.1907 127.252 40.259 127.287C42.0983 127.419 43.9434 127.452 45.7866 127.388C47.621 127.322 49.451 127.261 51.2768 127.205C51.9536 127.19 52.6287 127.133 53.2983 127.033C53.9587 126.934 54.5967 126.72 55.1828 126.4C55.6178 126.217 56.0096 125.945 56.3326 125.602C56.631 125.275 56.8765 124.905 57.0604 124.503C57.2545 124.091 57.3949 123.656 57.4782 123.209C57.5665 122.755 57.6343 122.282 57.6869 121.791C57.7397 121.121 57.746 120.448 57.7056 119.777C57.6046 118.371 57.2311 116.999 56.6059 115.737C56.2919 115.114 55.8348 114.575 55.2718 114.163C54.5767 113.726 53.817 113.401 53.0206 113.2C52.2121 112.986 51.385 112.849 50.5505 112.79L49.3974 112.674C48.1806 112.568 46.9878 112.522 45.819 112.537C44.6502 112.553 43.444 112.515 42.2004 112.424C41.6153 112.398 41.0366 112.387 40.4643 112.392C39.8919 112.397 39.3127 112.421 38.7268 112.464C38.3547 112.507 37.985 112.567 37.6191 112.647C37.249 112.727 36.8888 112.848 36.5449 113.007C35.717 113.285 34.975 113.773 34.3912 114.422C33.8628 115.11 33.4574 115.885 33.193 116.711C32.9144 117.561 32.7457 118.443 32.691 119.335C32.6355 120.24 32.6917 121.147 32.8584 122.038C33.0151 122.906 33.2831 123.751 33.6556 124.552C33.8317 124.844 34.0408 125.115 34.2788 125.36C35.0729 126.09 36.0406 126.606 37.0904 126.858ZM37.564 120.262C37.4548 119.785 37.499 119.285 37.6901 118.834C37.9537 118.299 38.3742 117.856 38.8956 117.566C39.4455 117.253 40.0601 117.071 40.6915 117.035C41.0875 117.017 41.5182 116.996 41.9724 116.962L42.6906 116.916L45.0738 116.858L46.7581 116.871L47.3539 116.893C47.7037 116.911 48.1128 116.931 48.5819 116.96C48.9721 117.003 49.3645 117.024 49.7572 117.022C50.0049 117.007 50.2533 117.01 50.5004 117.033C50.699 117.059 50.8906 117.123 51.0643 117.222C51.3036 117.355 51.5308 117.509 51.7432 117.682C52.1368 118.033 52.4294 118.482 52.5911 118.984C52.7592 119.481 52.8258 120.006 52.7868 120.528C52.7482 121.034 52.593 121.524 52.3334 121.961C52.0777 122.4 51.6956 122.752 51.2369 122.971C50.441 123.199 49.6211 123.334 48.794 123.371C47.9393 123.407 47.1023 123.482 46.283 123.594C45.2976 123.632 44.3165 123.631 43.3356 123.584C42.392 123.548 41.4536 123.429 40.5311 123.228C39.5685 122.951 38.7245 122.365 38.1293 121.56C37.8518 121.169 37.6581 120.725 37.56 120.255L37.564 120.262Z" fill="#EEEFF5"/>
<path d="M38.4646 106.16C39.6308 106.456 40.9116 106.777 42.3068 107.124C43.702 107.471 45.107 107.831 46.5216 108.206C47.9411 108.568 49.3064 108.936 50.6175 109.308L54.1179 110.267C55.1332 110.547 55.9483 110.782 56.5634 110.971C57.1747 111.164 57.4759 111.284 57.4675 111.338C57.5273 111.033 57.6111 110.733 57.7181 110.441C57.8737 109.961 58.0306 109.417 58.1888 108.809C58.347 108.201 58.488 107.579 58.6117 106.944C58.7302 106.424 58.7672 105.889 58.7215 105.359L56.9683 104.985C56.2328 104.834 55.4627 104.663 54.6534 104.479C53.8441 104.295 53.0703 104.094 52.3051 103.893C51.6648 103.723 51.0355 103.514 50.4209 103.267L50.5418 103.227C51.3302 102.89 52.1386 102.601 52.9624 102.363C53.8605 102.099 54.7574 101.868 55.6532 101.672C56.5549 101.485 57.4145 101.319 58.2253 101.178C59.0361 101.036 59.7394 100.926 60.3205 100.839L60.3268 100.804C60.6681 99.8325 60.9487 98.8407 61.1669 97.8346C61.3747 96.85 61.5913 95.9639 61.8058 95.1738L61.7976 95.2058C60.7738 95.2938 59.759 95.4661 58.7634 95.721C57.7605 95.981 56.7677 96.268 55.7849 96.5822C54.7996 96.8949 53.8203 97.2176 52.8423 97.5575C51.8642 97.8975 50.8931 98.1883 49.9257 98.4317L49.8937 98.4236L49.9053 98.3897L49.9375 98.2533C50.1785 97.2797 50.1193 96.2565 49.7677 95.318C49.4206 94.4574 48.8885 93.6837 48.209 93.0516C47.3039 92.0778 46.1365 91.3859 44.8468 91.059C43.6378 90.7493 42.3702 90.7462 41.1588 91.0502C39.9395 91.3647 38.813 91.9667 37.8738 92.8056C36.8788 93.6804 36.1412 94.8095 35.7405 96.0714C35.1258 97.594 34.6775 99.1782 34.4035 100.797C34.1421 102.35 33.928 103.782 33.7611 105.092C34.0657 105.129 34.6349 105.243 35.4686 105.435C36.2992 105.624 37.2974 105.868 38.4646 106.16ZM39.9719 98.9749C40.0377 98.6261 40.1731 98.2941 40.37 97.9985C40.5668 97.703 40.8211 97.4499 41.1177 97.2544C41.4625 97.0028 41.8757 96.8621 42.3022 96.8509C42.7417 96.8264 43.1812 96.897 43.5906 97.058C43.9924 97.2142 44.3482 97.4688 44.6255 97.7985C44.7662 97.9587 44.8729 98.1457 44.9392 98.3483C45.0056 98.5509 45.0302 98.7649 45.0116 98.9774C44.9479 99.572 44.8227 100.159 44.6381 100.728C44.4488 101.331 44.2578 101.887 44.0719 102.389L44.0623 102.426C43.7456 102.394 43.4319 102.339 43.1236 102.26C42.7602 102.173 42.3876 102.078 42.0037 101.972C41.6198 101.865 41.2418 101.769 40.8678 101.679C40.4938 101.589 40.1557 101.514 39.8555 101.457C39.7536 100.629 39.7929 99.79 39.9719 98.9749Z" fill="#EEEFF5"/>
<path d="M52.3829 87.5085C54.0919 88.5176 55.8127 89.5212 57.5454 90.5193C59.278 91.5174 61.0127 92.5444 62.7494 93.6002C64.1407 91.6805 65.4198 89.6821 66.5803 87.6151C67.7939 85.4621 69.0331 83.3752 70.2978 81.3544C69.769 80.8053 69.1781 80.3195 68.537 79.9068C67.8614 79.4678 67.1912 79.0736 66.5265 78.7243L66.4681 78.6867C65.6725 80.06 64.8593 81.3805 64.0139 82.6163C63.1685 83.852 62.3382 85.1285 61.5336 86.4484L61.4935 86.4722C60.9868 86.2218 60.3671 85.8926 59.6343 85.4843C58.9628 85.1233 58.331 84.6931 57.7492 84.2006C57.7535 83.9665 57.8211 83.7379 57.9449 83.5389C58.0968 83.246 58.2782 82.9266 58.4905 82.5753C58.7028 82.2241 58.9251 81.8669 59.143 81.4718C59.3475 81.125 59.511 80.7557 59.6302 80.3714C58.8772 79.9466 58.1769 79.5041 57.5193 79.0499C56.8622 78.5978 56.1609 78.2136 55.426 77.903L55.4121 77.8796C55.0167 78.4836 54.6271 79.0977 54.2435 79.7218C53.8635 80.3392 53.4769 80.938 53.0712 81.512L53.0277 81.5377C52.3792 81.3368 51.7737 81.0178 51.2416 80.5968C50.6928 80.1675 50.1128 79.7796 49.5062 79.4364L49.4825 79.3964L49.5371 79.3054C49.8785 78.6101 50.2529 77.9373 50.6603 77.2871C51.0652 76.6279 51.4688 75.9739 51.8811 75.3194C52.2933 74.6648 52.681 74.0068 53.0487 73.338C53.4138 72.6694 53.7214 71.9712 53.9683 71.2507L53.9525 71.224C53.2536 70.8018 52.5606 70.346 51.8733 69.8567C51.1931 69.3762 50.4642 68.9687 49.6984 68.6408C49.5335 68.8101 49.3905 68.9993 49.2727 69.2041C49.0097 69.5943 48.6777 70.1172 48.2765 70.7727C47.8769 71.4334 47.414 72.1856 46.9236 73.0669C46.4331 73.9481 45.9 74.8412 45.3606 75.7695C44.8212 76.6978 44.2891 77.6308 43.7651 78.5546C43.2411 79.4783 42.7621 80.3483 42.3288 81.1506C43.9868 82.2922 45.6579 83.3899 47.3421 84.4437C49.0264 85.4975 50.7067 86.5191 52.3829 87.5085Z" fill="#EEEFF5"/>
<path d="M63.3745 71.6679C66.629 73.9636 69.9996 76.0904 73.4731 78.0399C73.8754 77.8205 74.2498 77.5534 74.5882 77.2444C74.9871 76.8955 75.3647 76.5411 75.7311 76.1753C76.0477 75.8648 76.3469 75.537 76.6274 75.1936C76.8055 74.9602 76.9957 74.7362 77.1971 74.5225C76.1517 72.6905 75.1126 70.8999 74.0799 69.1505C73.0473 67.4012 72.0063 65.6583 70.9571 63.9217C69.9141 62.1905 68.8486 60.4621 67.7607 58.7365C66.6776 57.014 65.5347 55.2819 64.3457 53.5408C64.0049 53.7824 63.6823 54.0487 63.3806 54.3378C63.0687 54.6352 62.7554 54.938 62.4528 55.2434C62.1502 55.5489 61.8402 55.8497 61.5384 56.1412C61.2383 56.426 60.9098 56.6794 60.5582 56.8974C60.5505 56.9032 60.5443 56.9107 60.54 56.9194C60.5357 56.928 60.5334 56.9375 60.5334 56.9471C60.5334 56.9567 60.5357 56.9662 60.54 56.9748C60.5443 56.9834 60.5505 56.9909 60.5582 56.9967C61.0763 57.8718 61.6589 58.7719 62.3233 59.6957C62.9878 60.6195 63.717 61.6222 64.5116 62.7126C65.3063 63.8029 66.1675 64.9981 67.0907 66.3055C68.0139 67.613 68.9859 69.0945 70.0134 70.7461C68.4101 69.789 66.8646 68.7383 65.3851 67.5995C63.9699 66.5067 62.7065 65.4744 61.595 64.5025C60.4834 63.5307 59.5472 62.6821 58.7863 61.9567C58.2467 61.4188 57.6654 60.9243 57.0478 60.4779C56.7652 60.6694 56.4999 60.8853 56.255 61.1232C55.8915 61.4557 55.5265 61.8161 55.1547 62.2031C54.8042 62.5674 54.4775 62.9536 54.1765 63.3597C53.9514 63.6072 53.8121 63.9207 53.7794 64.2534L53.7972 64.2835C56.883 66.8802 60.0754 69.3417 63.3745 71.6679Z" fill="#EEEFF5"/>
<path d="M73.9506 60.8954C75.0452 62.5509 76.1509 64.2074 77.2678 65.8648C78.3846 67.5222 79.4939 69.2051 80.5957 70.9135C82.6821 69.7971 84.7026 68.5617 86.6471 67.2135C88.6814 65.8106 90.7081 64.4739 92.7273 63.2033C92.4904 62.4788 92.1702 61.7844 91.7731 61.1338C91.3618 60.439 90.9317 59.7915 90.4829 59.1911L90.4473 59.131C89.1327 60.0296 87.8231 60.8501 86.5184 61.5924C85.2137 62.3348 83.9116 63.1222 82.6121 63.9547L82.5642 63.9425C82.2237 63.4945 81.8108 62.927 81.3257 62.2398C80.8804 61.6218 80.5024 60.9578 80.1984 60.2594C80.3038 60.0497 80.465 59.873 80.6643 59.7489C80.9276 59.5525 81.2302 59.3462 81.577 59.1229C81.9237 58.8996 82.2785 58.6669 82.6441 58.4144C82.9732 58.1947 83.2761 57.9381 83.547 57.6498C83.0592 56.9327 82.6213 56.2311 82.2326 55.5365C81.8405 54.8416 81.3783 54.1887 80.8531 53.588L80.8353 53.5579C80.2096 53.9284 79.5972 54.3135 78.9853 54.7073C78.3735 55.1011 77.7612 55.4636 77.1451 55.7968L77.0939 55.7866C76.5991 55.323 76.1956 54.7709 75.9042 54.1588C75.5934 53.5348 75.2379 52.9343 74.8403 52.3618L74.8493 52.3159L74.943 52.2604C75.5607 51.7774 76.1909 51.3306 76.8335 50.9201C77.4761 50.5095 78.1341 50.0944 78.8074 49.6748C79.4766 49.2786 80.0993 48.8422 80.7201 48.4025C81.3408 47.9588 81.9227 47.4634 82.4596 46.9215L82.4399 46.8881C81.9978 46.2025 81.5753 45.4889 81.1723 44.7471C80.7729 44.0165 80.2971 43.3305 79.7527 42.7005C79.5322 42.784 79.3218 42.8919 79.1254 43.0223C78.7205 43.262 78.1886 43.577 77.5419 43.9959C76.8952 44.4148 76.1508 44.9052 75.3139 45.4684L72.7321 47.2134C71.8403 47.8136 70.9556 48.4156 70.078 49.0194C69.1988 49.6256 68.3918 50.1936 67.6451 50.7259C68.6342 52.483 69.6526 54.2031 70.7004 55.8864C71.7481 57.5696 72.8316 59.2393 73.9506 60.8954Z" fill="#EEEFF5"/>
<path d="M96.3641 61.9658C96.9614 61.7611 97.5574 61.539 98.1589 61.2957C98.6592 61.1103 99.1271 60.847 99.5452 60.5155C99.3886 60.0985 99.1737 59.5446 98.8963 58.8472C98.619 58.1498 98.3459 57.4138 98.0444 56.645C97.7429 55.8762 97.4934 55.1037 97.253 54.3619C97.0444 53.7334 96.8748 53.0927 96.7452 52.4432L96.8466 52.523C97.5594 52.9957 98.2422 53.5119 98.8913 54.0686C99.6032 54.6756 100.285 55.3005 100.937 55.9519C101.589 56.6032 102.196 57.2231 102.758 57.8287C103.32 58.4343 103.795 58.9555 104.185 59.3924L104.215 59.3746C105.214 59.1259 106.197 58.8153 107.158 58.4446C108.084 58.0857 108.932 57.7777 109.702 57.5292C109.072 56.7207 108.373 55.9676 107.614 55.2781C106.847 54.5775 106.064 53.9031 105.264 53.2547C104.465 52.6064 103.656 51.9662 102.839 51.3342C102.014 50.7039 101.244 50.0506 100.511 49.3789L100.494 49.3488L100.524 49.331L100.657 49.2884C101.604 48.9524 102.428 48.3401 103.023 47.5309C103.554 46.7687 103.909 45.899 104.064 44.9841C104.386 43.6928 104.327 42.3365 103.894 41.0791C103.49 39.8996 102.8 38.8388 101.885 37.9919C100.956 37.1449 99.835 36.5349 98.6183 36.2136C97.341 35.8599 95.9908 35.8622 94.7136 36.2202C93.103 36.5434 91.5318 37.0396 90.0274 37.7001C88.5941 38.3321 87.2794 38.9406 86.0833 39.5254C86.2195 39.8012 86.4332 40.3378 86.7298 41.1365C87.0265 41.9352 87.3687 42.91 87.7604 44.0449C88.1521 45.1797 88.5818 46.432 89.0688 47.7812C89.5557 49.1303 90.0065 50.5099 90.4745 51.911C90.9424 53.312 91.3722 54.6409 91.7929 55.9391C92.2135 57.2373 92.5805 58.3913 92.9052 59.39C93.2298 60.3887 93.4725 61.1878 93.661 61.8115C93.8495 62.4351 93.8974 62.7451 93.8533 62.7622C94.1405 62.6415 94.4375 62.5456 94.7411 62.4757C95.2265 62.3416 95.7689 62.1739 96.3641 61.9658ZM93.5945 45.7784C93.4689 45.4287 93.3473 45.0631 93.2232 44.6855C93.099 44.3079 92.9749 43.9304 92.8407 43.5587C92.7065 43.187 92.5886 42.8734 92.4712 42.5911C93.1074 42.0517 93.8303 41.6237 94.6092 41.3253C94.937 41.1879 95.2892 41.1181 95.6445 41.1202C95.9998 41.1222 96.3509 41.1961 96.6767 41.3372C97.075 41.4893 97.4181 41.7577 97.6614 42.1075C97.9217 42.4621 98.1035 42.868 98.1948 43.2984C98.2811 43.7189 98.2626 44.1542 98.1411 44.5662C98.0827 44.772 97.9836 44.9641 97.8495 45.131C97.7155 45.298 97.5493 45.4363 97.3608 45.5379C96.8277 45.8117 96.2679 46.0298 95.6901 46.1887C95.0817 46.3594 94.5202 46.5024 93.9888 46.6275L93.9587 46.6454C93.8177 46.365 93.696 46.0753 93.5945 45.7784Z" fill="#EEEFF5"/>
<path d="M112.013 55.6556C112.041 56.054 112.076 56.4484 112.128 56.8417C112.167 57.1685 112.228 57.4922 112.313 57.8103L112.415 57.7995L116.364 57.4414L116.434 57.4365L116.402 57.383C116.387 57.2204 116.366 56.9173 116.347 56.473C116.328 56.0286 116.306 55.5723 116.282 55.104C116.258 54.6357 116.244 54.224 116.233 53.861C116.221 53.4979 116.215 53.3034 116.211 53.2828C115.938 53.2155 115.656 53.1894 115.375 53.2052C114.988 53.2086 114.571 53.2297 114.132 53.2735C113.694 53.3183 113.259 53.3861 112.829 53.4766C112.492 53.5373 112.164 53.6403 111.854 53.7833C111.868 53.9459 111.894 54.2104 111.911 54.5521L112.013 55.6556Z" fill="#EEEFF5"/>
<path d="M98.9433 84.5633L80.6884 95.371C80.5997 95.4236 80.5354 95.5091 80.5097 95.6089C80.4841 95.7087 80.4991 95.8145 80.5516 95.9031L90.9058 113.392C90.9583 113.481 91.0438 113.545 91.1437 113.57C91.2435 113.596 91.3494 113.581 91.4382 113.528L100.408 108.217C100.497 108.165 100.561 108.079 100.587 107.979C100.613 107.88 100.598 107.774 100.545 107.685L95.5302 99.2146L104.146 94.1138L109.171 102.601C109.223 102.69 109.309 102.754 109.409 102.779C109.508 102.805 109.614 102.79 109.703 102.737L127.961 91.9273C128.05 91.8747 128.114 91.7891 128.14 91.6894C128.166 91.5896 128.151 91.4837 128.098 91.3952L117.734 73.8894C117.682 73.8009 117.596 73.7368 117.496 73.7113C117.396 73.6858 117.29 73.701 117.202 73.7535L108.231 79.0643C108.143 79.1168 108.078 79.2024 108.053 79.3022C108.027 79.402 108.042 79.5078 108.095 79.5964L113.119 88.0837L104.501 93.1865L99.4757 84.6992C99.4232 84.6106 99.3377 84.5465 99.2379 84.521C99.138 84.4955 99.0321 84.5107 98.9433 84.5633Z" fill="#EEEFF5"/>
<path d="M141.855 157.044L160.114 146.235C160.203 146.182 160.267 146.097 160.292 145.997C160.318 145.897 160.303 145.791 160.251 145.703L149.898 128.217C149.846 128.128 149.76 128.064 149.66 128.039C149.561 128.013 149.455 128.028 149.366 128.081L140.396 133.392C140.307 133.444 140.243 133.53 140.217 133.63C140.191 133.729 140.206 133.835 140.259 133.924L145.284 142.411L136.665 147.514L131.64 139.027C131.588 138.938 131.502 138.874 131.402 138.849C131.302 138.823 131.196 138.838 131.108 138.891L112.853 149.699C112.764 149.751 112.7 149.837 112.674 149.936C112.648 150.036 112.663 150.142 112.716 150.231L123.068 167.716C123.121 167.805 123.206 167.869 123.306 167.894C123.406 167.92 123.512 167.905 123.601 167.852L132.571 162.541C132.66 162.489 132.724 162.403 132.749 162.304C132.775 162.204 132.76 162.098 132.708 162.009L127.685 153.525L136.3 148.425L141.323 156.909C141.376 156.997 141.461 157.061 141.561 157.087C141.661 157.112 141.767 157.097 141.855 157.044Z" fill="#EEEFF5"/>
<path d="M133.511 101.34L138.542 109.837L129.923 114.94L124.892 106.442C124.84 106.354 124.754 106.29 124.655 106.264C124.555 106.239 124.449 106.254 124.36 106.307L115.072 111.806C114.983 111.858 114.919 111.944 114.893 112.043C114.868 112.143 114.883 112.249 114.935 112.338L125.382 129.984C125.435 130.072 125.52 130.136 125.62 130.162C125.72 130.187 125.826 130.172 125.915 130.12L154.09 113.438C154.179 113.386 154.243 113.3 154.269 113.201C154.294 113.101 154.279 112.995 154.227 112.906L143.78 95.2603C143.727 95.1717 143.642 95.1076 143.542 95.0822C143.442 95.0567 143.336 95.0719 143.247 95.1244L133.648 100.808C133.559 100.86 133.495 100.946 133.469 101.045C133.444 101.145 133.459 101.251 133.511 101.34Z" fill="#EEEFF5"/>
<path d="M105.672 116.748L87.0988 127.744C86.914 127.854 86.8528 128.092 86.962 128.276L97.775 146.54C97.8843 146.725 98.1226 146.786 98.3074 146.676L116.88 135.68C117.065 135.571 117.126 135.333 117.017 135.148L106.204 116.884C106.095 116.7 105.856 116.639 105.672 116.748Z" fill="#EEEFF5"/>
</svg>
