<svg width="320" height="320" viewBox="0 0 320 320" xmlns="http://www.w3.org/2000/svg" shape-rendering="crispEdges"><rect x="120" y="30" width="80" height="10" fill="#62616d" /><rect width="100" height="10" x="110" y="40" fill="#62616d" /><rect width="30" height="10" x="100" y="50" fill="#62616d" /><rect width="30" height="10" x="190" y="50" fill="#62616d" /><rect width="20" height="10" x="100" y="60" fill="#62616d" /><rect width="20" height="10" x="200" y="60" fill="#62616d" /><rect width="10" height="10" x="100" y="70" fill="#62616d" /><rect width="10" height="10" x="110" y="70" fill="#343235" /><rect width="10" height="10" x="200" y="70" fill="#62616d" /><rect width="10" height="10" x="210" y="70" fill="#343235" /><rect width="20" height="10" x="100" y="80" fill="#343235" /><rect width="20" height="10" x="200" y="80" fill="#343235" /><rect width="160" height="10" x="80" y="90" fill="#74580d" /><rect width="160" height="10" x="80" y="100" fill="#d08b11" /><rect width="160" height="10" x="80" y="110" fill="#d08b11" /><rect width="160" height="10" x="80" y="120" fill="#d08b11" /><rect width="160" height="10" x="80" y="130" fill="#d08b11" /><rect width="160" height="10" x="80" y="140" fill="#d08b11" /><rect width="160" height="10" x="80" y="150" fill="#d08b11" /><rect width="160" height="10" x="80" y="160" fill="#d08b11" /><rect width="10" height="10" x="80" y="170" fill="#d08b11" /><rect width="20" height="10" x="90" y="170" fill="#ffe939" /><rect width="100" height="10" x="110" y="170" fill="#d08b11" /><rect width="20" height="10" x="210" y="170" fill="#ffe939" /><rect width="10" height="10" x="230" y="170" fill="#d08b11" /><rect width="10" height="10" x="80" y="180" fill="#d08b11" /><rect width="20" height="10" x="90" y="180" fill="#ffe939" /><rect width="40" height="10" x="110" y="180" fill="#d08b11" /><rect width="20" height="10" x="150" y="180" fill="#000000" /><rect width="40" height="10" x="170" y="180" fill="#d08b11" /><rect width="20" height="10" x="210" y="180" fill="#ffe939" /><rect width="10" height="10" x="230" y="180" fill="#d08b11" /><rect width="70" height="10" x="80" y="190" fill="#d08b11" /><rect width="20" height="10" x="150" y="190" fill="#000000" /><rect width="70" height="10" x="170" y="190" fill="#d08b11" /><rect width="160" height="10" x="80" y="200" fill="#d08b11" /><rect width="60" height="10" x="100" y="110" fill="#ffc110" /><rect width="60" height="10" x="170" y="110" fill="#f98f30" /><rect width="10" height="10" x="100" y="120" fill="#ffc110" /><rect width="20" height="10" x="110" y="120" fill="#ffffff" /><rect width="20" height="10" x="130" y="120" fill="#000000" /><rect width="10" height="10" x="150" y="120" fill="#ffc110" /><rect width="10" height="10" x="170" y="120" fill="#f98f30" /><rect width="20" height="10" x="180" y="120" fill="#ffffff" /><rect width="20" height="10" x="200" y="120" fill="#000000" /><rect width="10" height="10" x="220" y="120" fill="#f98f30" /><rect width="30" height="10" x="70" y="130" fill="#f78a18" /><rect width="10" height="10" x="100" y="130" fill="#ffc110" /><rect width="20" height="10" x="110" y="130" fill="#ffffff" /><rect width="20" height="10" x="130" y="130" fill="#000000" /><rect width="10" height="10" x="150" y="130" fill="#ffc110" /><rect width="10" height="10" x="160" y="130" fill="#f78a18" /><rect width="10" height="10" x="170" y="130" fill="#f98f30" /><rect width="20" height="10" x="180" y="130" fill="#ffffff" /><rect width="20" height="10" x="200" y="130" fill="#000000" /><rect width="10" height="10" x="220" y="130" fill="#f98f30" /><rect width="10" height="10" x="70" y="140" fill="#ffc110" /><rect width="10" height="10" x="100" y="140" fill="#ffc110" /><rect width="20" height="10" x="110" y="140" fill="#ffffff" /><rect width="20" height="10" x="130" y="140" fill="#000000" /><rect width="10" height="10" x="150" y="140" fill="#ffc110" /><rect width="10" height="10" x="170" y="140" fill="#f98f30" /><rect width="20" height="10" x="180" y="140" fill="#ffffff" /><rect width="20" height="10" x="200" y="140" fill="#000000" /><rect width="10" height="10" x="220" y="140" fill="#f98f30" /><rect width="10" height="10" x="70" y="150" fill="#ffc110" /><rect width="10" height="10" x="100" y="150" fill="#ffc110" /><rect width="20" height="10" x="110" y="150" fill="#ffffff" /><rect width="20" height="10" x="130" y="150" fill="#000000" /><rect width="10" height="10" x="150" y="150" fill="#ffc110" /><rect width="10" height="10" x="170" y="150" fill="#f98f30" /><rect width="20" height="10" x="180" y="150" fill="#ffffff" /><rect width="20" height="10" x="200" y="150" fill="#000000" /><rect width="10" height="10" x="220" y="150" fill="#f98f30" /><rect width="60" height="10" x="100" y="160" fill="#ffc110" /><rect width="60" height="10" x="170" y="160" fill="#f98f30" />
</svg>