<svg width="320" height="320" viewBox="0 0 320 320" xmlns="http://www.w3.org/2000/svg" shape-rendering="crispEdges"><rect x="150" y="20" width="20" height="10" fill="#ffc110" /><rect width="20" height="10" x="150" y="30" fill="#ffc110" /><rect width="40" height="10" x="140" y="40" fill="#ffc110" /><rect width="40" height="10" x="140" y="50" fill="#ffc110" /><rect width="60" height="10" x="130" y="60" fill="#d08b11" /><rect width="60" height="10" x="130" y="70" fill="#000000" /><rect width="20" height="10" x="90" y="80" fill="#ffc110" /><rect width="20" height="10" x="110" y="80" fill="#d08b11" /><rect width="20" height="10" x="130" y="80" fill="#ffc110" /><rect width="20" height="10" x="150" y="80" fill="#d08b11" /><rect width="20" height="10" x="170" y="80" fill="#ffc110" /><rect width="20" height="10" x="190" y="80" fill="#d08b11" /><rect width="20" height="10" x="210" y="80" fill="#ffc110" /><rect width="140" height="10" x="90" y="90" fill="#000000" /><rect width="160" height="10" x="80" y="100" fill="#ffc925" /><rect width="160" height="10" x="80" y="110" fill="#ffc925" /><rect width="160" height="10" x="80" y="120" fill="#ffc925" /><rect width="160" height="10" x="80" y="130" fill="#ffc925" /><rect width="160" height="10" x="80" y="140" fill="#ffc925" /><rect width="160" height="10" x="80" y="150" fill="#ffc925" /><rect width="160" height="10" x="80" y="160" fill="#ffc925" /><rect width="160" height="10" x="80" y="170" fill="#ffc925" /><rect width="20" height="10" x="80" y="180" fill="#ffc925" /><rect width="30" height="10" x="100" y="180" fill="#d08b11" /><rect width="20" height="10" x="130" y="180" fill="#ffc925" /><rect width="30" height="10" x="150" y="180" fill="#d08b11" /><rect width="60" height="10" x="180" y="180" fill="#ffc925" /><rect width="40" height="10" x="80" y="190" fill="#ffc925" /><rect width="40" height="10" x="120" y="190" fill="#d08b11" /><rect width="80" height="10" x="160" y="190" fill="#ffc925" /><rect width="160" height="10" x="80" y="200" fill="#ffc925" /><rect width="60" height="10" x="100" y="110" fill="#9cb4b8" /><rect width="60" height="10" x="170" y="110" fill="#9cb4b8" /><rect width="10" height="10" x="100" y="120" fill="#9cb4b8" /><rect width="20" height="10" x="110" y="120" fill="#ffffff" /><rect width="20" height="10" x="130" y="120" fill="#000000" /><rect width="10" height="10" x="150" y="120" fill="#9cb4b8" /><rect width="10" height="10" x="170" y="120" fill="#9cb4b8" /><rect width="20" height="10" x="180" y="120" fill="#ffffff" /><rect width="20" height="10" x="200" y="120" fill="#000000" /><rect width="10" height="10" x="220" y="120" fill="#9cb4b8" /><rect width="40" height="10" x="70" y="130" fill="#9cb4b8" /><rect width="20" height="10" x="110" y="130" fill="#ffffff" /><rect width="20" height="10" x="130" y="130" fill="#000000" /><rect width="30" height="10" x="150" y="130" fill="#9cb4b8" /><rect width="20" height="10" x="180" y="130" fill="#ffffff" /><rect width="20" height="10" x="200" y="130" fill="#000000" /><rect width="10" height="10" x="220" y="130" fill="#9cb4b8" /><rect width="10" height="10" x="70" y="140" fill="#9cb4b8" /><rect width="10" height="10" x="100" y="140" fill="#9cb4b8" /><rect width="20" height="10" x="110" y="140" fill="#ffffff" /><rect width="20" height="10" x="130" y="140" fill="#000000" /><rect width="10" height="10" x="150" y="140" fill="#9cb4b8" /><rect width="10" height="10" x="170" y="140" fill="#9cb4b8" /><rect width="20" height="10" x="180" y="140" fill="#ffffff" /><rect width="20" height="10" x="200" y="140" fill="#000000" /><rect width="10" height="10" x="220" y="140" fill="#9cb4b8" /><rect width="10" height="10" x="70" y="150" fill="#9cb4b8" /><rect width="10" height="10" x="100" y="150" fill="#9cb4b8" /><rect width="20" height="10" x="110" y="150" fill="#ffffff" /><rect width="20" height="10" x="130" y="150" fill="#000000" /><rect width="10" height="10" x="150" y="150" fill="#9cb4b8" /><rect width="10" height="10" x="170" y="150" fill="#9cb4b8" /><rect width="20" height="10" x="180" y="150" fill="#ffffff" /><rect width="20" height="10" x="200" y="150" fill="#000000" /><rect width="10" height="10" x="220" y="150" fill="#9cb4b8" /><rect width="60" height="10" x="100" y="160" fill="#9cb4b8" /><rect width="60" height="10" x="170" y="160" fill="#9cb4b8" />
</svg>